<?xml version="1.0" encoding="UTF-8"?>
<svg width="1200" height="700" viewBox="0 0 1200 700" xmlns="http://www.w3.org/2000/svg">
  <defs>
    <linearGradient id="headerGradient" x1="0%" y1="0%" x2="100%" y2="0%">
      <stop offset="0%" style="stop-color:#6c5ce7;stop-opacity:1" />
      <stop offset="100%" style="stop-color:#a29bfe;stop-opacity:1" />
    </linearGradient>
    <filter id="shadow" x="-20%" y="-20%" width="140%" height="140%">
      <feDropShadow dx="2" dy="4" stdDeviation="3" flood-color="#00000040"/>
    </filter>
  </defs>
  
  <!-- Background -->
  <rect width="1200" height="700" fill="#f8f9fa"/>
  
  <!-- Title -->
  <rect x="0" y="0" width="1200" height="80" fill="url(#headerGradient)" filter="url(#shadow)"/>
  <text x="600" y="35" font-family="Arial, sans-serif" font-size="28" font-weight="bold" text-anchor="middle" fill="#ffffff">
    OperatorOS vs Traditional Solutions
  </text>
  <text x="600" y="60" font-family="Arial, sans-serif" font-size="16" text-anchor="middle" fill="rgba(255,255,255,0.9)">
    Why OperatorOS Outperforms Legacy AI Systems
  </text>
  
  <!-- Comparison Table Header -->
  <g transform="translate(50, 120)">
    <rect x="0" y="0" width="1100" height="50" fill="#ffffff" stroke="#ddd" stroke-width="1" filter="url(#shadow)"/>
    
    <text x="30" y="32" font-family="Arial, sans-serif" font-size="18" font-weight="bold" fill="#2d3436">Feature</text>
    <line x1="300" y1="0" x2="300" y2="50" stroke="#ddd" stroke-width="1"/>
    
    <text x="375" y="20" font-family="Arial, sans-serif" font-size="16" font-weight="bold" text-anchor="middle" fill="#6c5ce7">OperatorOS</text>
    <text x="375" y="38" font-family="Arial, sans-serif" font-size="12" text-anchor="middle" fill="#74b9ff">Multi-Provider AI</text>
    <line x1="500" y1="0" x2="500" y2="50" stroke="#ddd" stroke-width="1"/>
    
    <text x="600" y="20" font-family="Arial, sans-serif" font-size="16" font-weight="bold" text-anchor="middle" fill="#636e72">Single-Provider</text>
    <text x="600" y="38" font-family="Arial, sans-serif" font-size="12" text-anchor="middle" fill="#636e72">Traditional Systems</text>
    <line x1="700" y1="0" x2="700" y2="50" stroke="#ddd" stroke-width="1"/>
    
    <text x="800" y="20" font-family="Arial, sans-serif" font-size="16" font-weight="bold" text-anchor="middle" fill="#636e72">Custom Build</text>
    <text x="800" y="38" font-family="Arial, sans-serif" font-size="12" text-anchor="middle" fill="#636e72">In-House Solutions</text>
    <line x1="900" y1="0" x2="900" y2="50" stroke="#ddd" stroke-width="1"/>
    
    <text x="1000" y="20" font-family="Arial, sans-serif" font-size="16" font-weight="bold" text-anchor="middle" fill="#636e72">No AI</text>
    <text x="1000" y="38" font-family="Arial, sans-serif" font-size="12" text-anchor="middle" fill="#636e72">Legacy Systems</text>
  </g>
  
  <!-- Comparison Rows -->
  
  <!-- Row 1: AI Provider Coverage -->
  <g transform="translate(50, 170)">
    <rect x="0" y="0" width="1100" height="40" fill="#ffffff" stroke="#ddd" stroke-width="1"/>
    <text x="20" y="26" font-family="Arial, sans-serif" font-size="14" font-weight="bold" fill="#2d3436">AI Provider Coverage</text>
    
    <rect x="320" y="8" width="160" height="24" fill="#00b894" rx="12"/>
    <text x="400" y="23" font-family="Arial, sans-serif" font-size="12" font-weight="bold" text-anchor="middle" fill="#ffffff">3 Providers</text>
    
    <rect x="520" y="8" width="160" height="24" fill="#fdcb6e" rx="12"/>
    <text x="600" y="23" font-family="Arial, sans-serif" font-size="12" font-weight="bold" text-anchor="middle" fill="#2d3436">1 Provider</text>
    
    <rect x="720" y="8" width="160" height="24" fill="#e84118" rx="12"/>
    <text x="800" y="23" font-family="Arial, sans-serif" font-size="12" font-weight="bold" text-anchor="middle" fill="#ffffff">Limited/None</text>
    
    <rect x="920" y="8" width="160" height="24" fill="#636e72" rx="12"/>
    <text x="1000" y="23" font-family="Arial, sans-serif" font-size="12" font-weight="bold" text-anchor="middle" fill="#ffffff">None</text>
  </g>
  
  <!-- Row 2: Analysis Depth -->
  <g transform="translate(50, 210)">
    <rect x="0" y="0" width="1100" height="40" fill="#f8f9fa" stroke="#ddd" stroke-width="1"/>
    <text x="20" y="26" font-family="Arial, sans-serif" font-size="14" font-weight="bold" fill="#2d3436">Analysis Depth</text>
    
    <rect x="320" y="8" width="160" height="24" fill="#00b894" rx="12"/>
    <text x="400" y="23" font-family="Arial, sans-serif" font-size="12" font-weight="bold" text-anchor="middle" fill="#ffffff">30K+ Characters</text>
    
    <rect x="520" y="8" width="160" height="24" fill="#fdcb6e" rx="12"/>
    <text x="600" y="23" font-family="Arial, sans-serif" font-size="12" font-weight="bold" text-anchor="middle" fill="#2d3436">5K Characters</text>
    
    <rect x="720" y="8" width="160" height="24" fill="#e84118" rx="12"/>
    <text x="800" y="23" font-family="Arial, sans-serif" font-size="12" font-weight="bold" text-anchor="middle" fill="#ffffff">Variable</text>
    
    <rect x="920" y="8" width="160" height="24" fill="#636e72" rx="12"/>
    <text x="1000" y="23" font-family="Arial, sans-serif" font-size="12" font-weight="bold" text-anchor="middle" fill="#ffffff">Manual Only</text>
  </g>
  
  <!-- Row 3: Response Time -->
  <g transform="translate(50, 250)">
    <rect x="0" y="0" width="1100" height="40" fill="#ffffff" stroke="#ddd" stroke-width="1"/>
    <text x="20" y="26" font-family="Arial, sans-serif" font-size="14" font-weight="bold" fill="#2d3436">Response Time</text>
    
    <rect x="320" y="8" width="160" height="24" fill="#00b894" rx="12"/>
    <text x="400" y="23" font-family="Arial, sans-serif" font-size="12" font-weight="bold" text-anchor="middle" fill="#ffffff">&lt;30 Seconds</text>
    
    <rect x="520" y="8" width="160" height="24" fill="#74b9ff" rx="12"/>
    <text x="600" y="23" font-family="Arial, sans-serif" font-size="12" font-weight="bold" text-anchor="middle" fill="#ffffff">1-2 Minutes</text>
    
    <rect x="720" y="8" width="160" height="24" fill="#fdcb6e" rx="12"/>
    <text x="800" y="23" font-family="Arial, sans-serif" font-size="12" font-weight="bold" text-anchor="middle" fill="#2d3436">5-10 Minutes</text>
    
    <rect x="920" y="8" width="160" height="24" fill="#e84118" rx="12"/>
    <text x="1000" y="23" font-family="Arial, sans-serif" font-size="12" font-weight="bold" text-anchor="middle" fill="#ffffff">Hours/Days</text>
  </g>
  
  <!-- Row 4: Deployment Time -->
  <g transform="translate(50, 290)">
    <rect x="0" y="0" width="1100" height="40" fill="#f8f9fa" stroke="#ddd" stroke-width="1"/>
    <text x="20" y="26" font-family="Arial, sans-serif" font-size="14" font-weight="bold" fill="#2d3436">Deployment Time</text>
    
    <rect x="320" y="8" width="160" height="24" fill="#00b894" rx="12"/>
    <text x="400" y="23" font-family="Arial, sans-serif" font-size="12" font-weight="bold" text-anchor="middle" fill="#ffffff">Same Day</text>
    
    <rect x="520" y="8" width="160" height="24" fill="#fdcb6e" rx="12"/>
    <text x="600" y="23" font-family="Arial, sans-serif" font-size="12" font-weight="bold" text-anchor="middle" fill="#2d3436">1-2 Weeks</text>
    
    <rect x="720" y="8" width="160" height="24" fill="#e84118" rx="12"/>
    <text x="800" y="23" font-family="Arial, sans-serif" font-size="12" font-weight="bold" text-anchor="middle" fill="#ffffff">6+ Months</text>
    
    <rect x="920" y="8" width="160" height="24" fill="#636e72" rx="12"/>
    <text x="1000" y="23" font-family="Arial, sans-serif" font-size="12" font-weight="bold" text-anchor="middle" fill="#ffffff">N/A</text>
  </g>
  
  <!-- Row 5: Maintenance -->
  <g transform="translate(50, 330)">
    <rect x="0" y="0" width="1100" height="40" fill="#ffffff" stroke="#ddd" stroke-width="1"/>
    <text x="20" y="26" font-family="Arial, sans-serif" font-size="14" font-weight="bold" fill="#2d3436">Maintenance Required</text>
    
    <rect x="320" y="8" width="160" height="24" fill="#00b894" rx="12"/>
    <text x="400" y="23" font-family="Arial, sans-serif" font-size="12" font-weight="bold" text-anchor="middle" fill="#ffffff">Minimal</text>
    
    <rect x="520" y="8" width="160" height="24" fill="#74b9ff" rx="12"/>
    <text x="600" y="23" font-family="Arial, sans-serif" font-size="12" font-weight="bold" text-anchor="middle" fill="#ffffff">Moderate</text>
    
    <rect x="720" y="8" width="160" height="24" fill="#e84118" rx="12"/>
    <text x="800" y="23" font-family="Arial, sans-serif" font-size="12" font-weight="bold" text-anchor="middle" fill="#ffffff">High</text>
    
    <rect x="920" y="8" width="160" height="24" fill="#636e72" rx="12"/>
    <text x="1000" y="23" font-family="Arial, sans-serif" font-size="12" font-weight="bold" text-anchor="middle" fill="#ffffff">N/A</text>
  </g>
  
  <!-- Row 6: Cost Efficiency -->
  <g transform="translate(50, 370)">
    <rect x="0" y="0" width="1100" height="40" fill="#f8f9fa" stroke="#ddd" stroke-width="1"/>
    <text x="20" y="26" font-family="Arial, sans-serif" font-size="14" font-weight="bold" fill="#2d3436">Cost Efficiency</text>
    
    <rect x="320" y="8" width="160" height="24" fill="#00b894" rx="12"/>
    <text x="400" y="23" font-family="Arial, sans-serif" font-size="12" font-weight="bold" text-anchor="middle" fill="#ffffff">High ROI</text>
    
    <rect x="520" y="8" width="160" height="24" fill="#74b9ff" rx="12"/>
    <text x="600" y="23" font-family="Arial, sans-serif" font-size="12" font-weight="bold" text-anchor="middle" fill="#ffffff">Moderate</text>
    
    <rect x="720" y="8" width="160" height="24" fill="#e84118" rx="12"/>
    <text x="800" y="23" font-family="Arial, sans-serif" font-size="12" font-weight="bold" text-anchor="middle" fill="#ffffff">High Cost</text>
    
    <rect x="920" y="8" width="160" height="24" fill="#636e72" rx="12"/>
    <text x="1000" y="23" font-family="Arial, sans-serif" font-size="12" font-weight="bold" text-anchor="middle" fill="#ffffff">Labor Cost</text>
  </g>
  
  <!-- Row 7: Scalability -->
  <g transform="translate(50, 410)">
    <rect x="0" y="0" width="1100" height="40" fill="#ffffff" stroke="#ddd" stroke-width="1"/>
    <text x="20" y="26" font-family="Arial, sans-serif" font-size="14" font-weight="bold" fill="#2d3436">Scalability</text>
    
    <rect x="320" y="8" width="160" height="24" fill="#00b894" rx="12"/>
    <text x="400" y="23" font-family="Arial, sans-serif" font-size="12" font-weight="bold" text-anchor="middle" fill="#ffffff">Auto-Scale</text>
    
    <rect x="520" y="8" width="160" height="24" fill="#fdcb6e" rx="12"/>
    <text x="600" y="23" font-family="Arial, sans-serif" font-size="12" font-weight="bold" text-anchor="middle" fill="#2d3436">Limited</text>
    
    <rect x="720" y="8" width="160" height="24" fill="#e84118" rx="12"/>
    <text x="800" y="23" font-family="Arial, sans-serif" font-size="12" font-weight="bold" text-anchor="middle" fill="#ffffff">Complex</text>
    
    <rect x="920" y="8" width="160" height="24" fill="#636e72" rx="12"/>
    <text x="1000" y="23" font-family="Arial, sans-serif" font-size="12" font-weight="bold" text-anchor="middle" fill="#ffffff">Manual</text>
  </g>
  
  <!-- Row 8: Success Rate -->
  <g transform="translate(50, 450)">
    <rect x="0" y="0" width="1100" height="40" fill="#f8f9fa" stroke="#ddd" stroke-width="1"/>
    <text x="20" y="26" font-family="Arial, sans-serif" font-size="14" font-weight="bold" fill="#2d3436">Reliability/Success Rate</text>
    
    <rect x="320" y="8" width="160" height="24" fill="#00b894" rx="12"/>
    <text x="400" y="23" font-family="Arial, sans-serif" font-size="12" font-weight="bold" text-anchor="middle" fill="#ffffff">100% Tested</text>
    
    <rect x="520" y="8" width="160" height="24" fill="#74b9ff" rx="12"/>
    <text x="600" y="23" font-family="Arial, sans-serif" font-size="12" font-weight="bold" text-anchor="middle" fill="#ffffff">85-95%</text>
    
    <rect x="720" y="8" width="160" height="24" fill="#fdcb6e" rx="12"/>
    <text x="800" y="23" font-family="Arial, sans-serif" font-size="12" font-weight="bold" text-anchor="middle" fill="#2d3436">Variable</text>
    
    <rect x="920" y="8" width="160" height="24" fill="#e84118" rx="12"/>
    <text x="1000" y="23" font-family="Arial, sans-serif" font-size="12" font-weight="bold" text-anchor="middle" fill="#ffffff">Human Error</text>
  </g>
  
  <!-- Key Advantages Section -->
  <g transform="translate(50, 520)">
    <rect x="0" y="0" width="1100" height="140" fill="#ffffff" rx="10" stroke="#ddd" stroke-width="2" filter="url(#shadow)"/>
    <rect x="0" y="0" width="1100" height="40" fill="url(#headerGradient)" rx="10"/>
    <text x="550" y="26" font-family="Arial, sans-serif" font-size="18" font-weight="bold" text-anchor="middle" fill="#ffffff">OperatorOS Competitive Advantages</text>
    
    <!-- Advantage 1 -->
    <g transform="translate(50, 60)">
      <circle cx="10" cy="10" r="8" fill="#00b894"/>
      <text x="10" y="15" font-family="Arial, sans-serif" font-size="12" font-weight="bold" text-anchor="middle" fill="#ffffff">✓</text>
      <text x="30" y="8" font-family="Arial, sans-serif" font-size="14" font-weight="bold" fill="#2d3436">Multi-Provider Intelligence</text>
      <text x="30" y="22" font-family="Arial, sans-serif" font-size="11" fill="#636e72">Combines Claude, Grok, and OpenAI for comprehensive analysis</text>
    </g>
    
    <!-- Advantage 2 -->
    <g transform="translate(550, 60)">
      <circle cx="10" cy="10" r="8" fill="#00b894"/>
      <text x="10" y="15" font-family="Arial, sans-serif" font-size="12" font-weight="bold" text-anchor="middle" fill="#ffffff">✓</text>
      <text x="30" y="8" font-family="Arial, sans-serif" font-size="14" font-weight="bold" fill="#2d3436">Zero-UI Conversational Interface</text>
      <text x="30" y="22" font-family="Arial, sans-serif" font-size="11" fill="#636e72">Natural language commands through Replit Agent</text>
    </g>
    
    <!-- Advantage 3 -->
    <g transform="translate(50, 100)">
      <circle cx="10" cy="10" r="8" fill="#00b894"/>
      <text x="10" y="15" font-family="Arial, sans-serif" font-size="12" font-weight="bold" text-anchor="middle" fill="#ffffff">✓</text>
      <text x="30" y="8" font-family="Arial, sans-serif" font-size="14" font-weight="bold" fill="#2d3436">Production-Ready Architecture</text>
      <text x="30" y="22" font-family="Arial, sans-serif" font-size="11" fill="#636e72">Enterprise security, auto-scaling, 24/7 monitoring</text>
    </g>
    
    <!-- Advantage 4 -->
    <g transform="translate(550, 100)">
      <circle cx="10" cy="10" r="8" fill="#00b894"/>
      <text x="10" y="15" font-family="Arial, sans-serif" font-size="12" font-weight="bold" text-anchor="middle" fill="#ffffff">✓</text>
      <text x="30" y="8" font-family="Arial, sans-serif" font-size="14" font-weight="bold" fill="#2d3436">Real-Time Data Integration</text>
      <text x="30" y="22" font-family="Arial, sans-serif" font-size="11" fill="#636e72">Live market data, sports analytics, currency rates</text>
    </g>
  </g>
</svg>